<svg width="135" height="32" viewBox="0 0 135 32" fill="none" xmlns="http://www.w3.org/2000/svg">
<path d="M28.6667 6.66635V22.6664C28.6667 23.1968 28.456 23.7055 28.0809 24.0806C27.7058 24.4556 27.1971 24.6664 26.6667 24.6664H10.0417L5.9667 28.1864L5.95545 28.1951C5.59543 28.5002 5.1386 28.6673 4.6667 28.6664C4.37289 28.6658 4.08276 28.601 3.8167 28.4764C3.47153 28.3168 3.17956 28.0613 2.97565 27.7404C2.77173 27.4194 2.66448 27.0466 2.6667 26.6664V6.66635C2.6667 6.13592 2.87741 5.62721 3.25248 5.25214C3.62755 4.87707 4.13626 4.66635 4.6667 4.66635H26.6667C27.1971 4.66635 27.7058 4.87707 28.0809 5.25214C28.456 5.62721 28.6667 6.13592 28.6667 6.66635ZM26.6667 6.66635H4.6667V26.6664L9.01295 22.9164C9.19363 22.757 9.42578 22.6682 9.6667 22.6664H26.6667V6.66635Z" fill="#FF6F00"/>
<path d="M17.672 11.4142C17.5072 11.6609 17.4192 11.9509 17.4192 12.2476C17.4192 12.6454 17.5773 13.0269 17.8586 13.3082C18.1399 13.5895 18.5214 13.7476 18.9192 13.7476C19.2159 13.7476 19.5059 13.6596 19.7526 13.4948C19.9993 13.3299 20.1915 13.0957 20.305 12.8216C20.4186 12.5475 20.4483 12.2459 20.3904 11.9549C20.3325 11.664 20.1897 11.3967 19.9799 11.1869C19.7701 10.9771 19.5028 10.8343 19.2119 10.7764C18.9209 10.7185 18.6193 10.7482 18.3452 10.8617C18.0711 10.9753 17.8368 11.1675 17.672 11.4142Z" fill="#FF6F00"/>
<path d="M13.5859 13.4948C13.3392 13.6596 13.0492 13.7476 12.7526 13.7476C12.3547 13.7476 11.9732 13.5895 11.6919 13.3082C11.4106 13.0269 11.2526 12.6454 11.2526 12.2476C11.2526 11.9509 11.3405 11.6609 11.5054 11.4142C11.6702 11.1675 11.9044 10.9753 12.1785 10.8617C12.4526 10.7482 12.7542 10.7185 13.0452 10.7764C13.3362 10.8343 13.6034 10.9771 13.8132 11.1869C14.023 11.3967 14.1659 11.664 14.2237 11.9549C14.2816 12.2459 14.2519 12.5475 14.1384 12.8216C14.0249 13.0957 13.8326 13.3299 13.5859 13.4948Z" fill="#FF6F00"/>
<path d="M21.8117 16.2252V16.2259C22.0991 15.7993 22.6778 15.6856 23.1054 15.972C23.5335 16.2589 23.6481 16.8387 23.3612 17.2669L22.5858 16.7474C23.3169 17.2371 23.3585 17.2655 23.3606 17.2676L23.3599 17.2689L23.3547 17.2767C23.3521 17.2804 23.349 17.2847 23.3456 17.2897C23.3384 17.2999 23.3293 17.313 23.3182 17.3281C23.2962 17.3583 23.2664 17.3978 23.2284 17.4453C23.1524 17.5403 23.0434 17.6675 22.899 17.8157C22.61 18.1121 22.1776 18.4931 21.5806 18.8698C20.3787 19.6281 18.54 20.3476 15.9192 20.3476C11.7384 20.3476 9.26438 18.4421 8.4771 17.2669C8.19025 16.8387 8.30477 16.2589 8.73296 15.972C9.16119 15.6851 9.74099 15.7997 10.0279 16.2278C10.4315 16.8304 12.2913 18.4804 15.9192 18.4804C18.1785 18.4804 19.6732 17.8666 20.5845 17.2916C21.0441 17.0017 21.3639 16.7159 21.5624 16.5123C21.6615 16.4107 21.73 16.3294 21.7707 16.2786C21.7911 16.2532 21.8046 16.2354 21.8111 16.2265L21.8117 16.2252Z" fill="#FF6F00"/>
<path d="M46.64 8.1C48.7867 8.1 50.3667 8.63333 51.38 9.7C52.3933 10.7533 52.9 12.28 52.9 14.28V16.34C52.9 17.34 52.7867 18.2267 52.56 19C52.3333 19.76 51.9667 20.4 51.46 20.92C50.9667 21.44 50.3267 21.8333 49.54 22.1C48.7533 22.38 47.8 22.52 46.68 22.52H41.62V8.1H46.64ZM44.16 20.36H46.3C46.94 20.36 47.5067 20.2867 48 20.14C48.5067 19.9933 48.9267 19.76 49.26 19.44C49.6067 19.12 49.8667 18.7 50.04 18.18C50.2267 17.6467 50.32 17 50.32 16.24V14.38C50.32 12.86 49.98 11.7933 49.3 11.18C48.6333 10.5667 47.6333 10.26 46.3 10.26H44.16V20.36ZM58.6839 22.68C57.4972 22.68 56.5772 22.4133 55.9239 21.88C55.2706 21.3333 54.9439 20.5733 54.9439 19.6V18.96C54.9439 18.5067 55.0106 18.0933 55.1439 17.72C55.2906 17.3333 55.5239 17 55.8439 16.72C56.1772 16.44 56.6106 16.22 57.1439 16.06C57.6772 15.9 58.3306 15.82 59.1039 15.82H61.6239V15.4C61.6239 14.72 61.4639 14.2333 61.1439 13.94C60.8372 13.6333 60.3439 13.48 59.6639 13.48C58.5172 13.48 57.4772 13.8467 56.5439 14.58L55.3039 12.74C55.8639 12.3533 56.4972 12.0133 57.2039 11.72C57.9106 11.4133 58.7372 11.26 59.6839 11.26C60.3239 11.26 60.9172 11.34 61.4639 11.5C62.0106 11.66 62.4772 11.8933 62.8639 12.2C63.2639 12.4933 63.5706 12.86 63.7839 13.3C64.0106 13.7267 64.1239 14.22 64.1239 14.78V22.52H61.8639L61.8239 21.16C61.7172 21.4 61.5439 21.62 61.3039 21.82C61.0772 22.0067 60.8172 22.16 60.5239 22.28C60.2306 22.4133 59.9239 22.5133 59.6039 22.58C59.2839 22.6467 58.9772 22.68 58.6839 22.68ZM61.6239 17.78H59.1639C58.4972 17.78 58.0306 17.9067 57.7639 18.16C57.5106 18.4133 57.3839 18.7533 57.3839 19.18V19.42C57.3839 19.78 57.5106 20.06 57.7639 20.26C58.0172 20.46 58.3906 20.56 58.8839 20.56C59.9106 20.56 60.6706 20.3133 61.1639 19.82C61.3906 19.5933 61.5239 19.3533 61.5639 19.1C61.6039 18.8333 61.6239 18.4933 61.6239 18.08V17.78ZM73.8288 21.22H73.7688C73.4754 21.7533 73.0421 22.1267 72.4688 22.34C71.8954 22.5667 71.2754 22.68 70.6087 22.68C69.1954 22.68 68.1354 22.2733 67.4288 21.46C66.7354 20.6333 66.3888 19.4733 66.3888 17.98V16.04C66.3888 15.2933 66.4888 14.6267 66.6888 14.04C66.9021 13.44 67.2021 12.94 67.5888 12.54C67.9754 12.1267 68.4354 11.8133 68.9688 11.6C69.5154 11.3733 70.1221 11.26 70.7888 11.26C71.2288 11.26 71.6088 11.3 71.9288 11.38C72.2621 11.46 72.5421 11.56 72.7688 11.68C73.0088 11.7867 73.2021 11.9133 73.3488 12.06C73.4954 12.1933 73.6088 12.32 73.6888 12.44V7.4H76.2088V22.52H73.8288V21.22ZM68.8688 17.6C68.8688 18.5333 69.0554 19.26 69.4288 19.78C69.8154 20.2867 70.3754 20.54 71.1088 20.54C71.5221 20.54 71.8888 20.4733 72.2088 20.34C72.5421 20.1933 72.8154 20 73.0288 19.76C73.2554 19.5067 73.4288 19.22 73.5488 18.9C73.6688 18.5667 73.7288 18.2133 73.7288 17.84V15.6C73.7288 15.3467 73.6754 15.0933 73.5688 14.84C73.4754 14.5733 73.3221 14.34 73.1088 14.14C72.9088 13.9267 72.6488 13.7533 72.3288 13.62C72.0221 13.4867 71.6488 13.42 71.2088 13.42C70.4088 13.42 69.8154 13.68 69.4288 14.2C69.0554 14.72 68.8688 15.44 68.8688 16.36V17.6ZM82.3948 22.68C81.2082 22.68 80.2882 22.4133 79.6348 21.88C78.9815 21.3333 78.6548 20.5733 78.6548 19.6V18.96C78.6548 18.5067 78.7215 18.0933 78.8548 17.72C79.0015 17.3333 79.2348 17 79.5548 16.72C79.8882 16.44 80.3215 16.22 80.8548 16.06C81.3882 15.9 82.0415 15.82 82.8148 15.82H85.3348V15.4C85.3348 14.72 85.1748 14.2333 84.8548 13.94C84.5482 13.6333 84.0548 13.48 83.3748 13.48C82.2282 13.48 81.1882 13.8467 80.2548 14.58L79.0148 12.74C79.5748 12.3533 80.2082 12.0133 80.9148 11.72C81.6215 11.4133 82.4482 11.26 83.3948 11.26C84.0348 11.26 84.6282 11.34 85.1748 11.5C85.7215 11.66 86.1882 11.8933 86.5748 12.2C86.9748 12.4933 87.2815 12.86 87.4948 13.3C87.7215 13.7267 87.8348 14.22 87.8348 14.78V22.52H85.5748L85.5348 21.16C85.4282 21.4 85.2548 21.62 85.0148 21.82C84.7882 22.0067 84.5282 22.16 84.2348 22.28C83.9415 22.4133 83.6348 22.5133 83.3148 22.58C82.9948 22.6467 82.6882 22.68 82.3948 22.68ZM85.3348 17.78H82.8748C82.2082 17.78 81.7415 17.9067 81.4748 18.16C81.2215 18.4133 81.0948 18.7533 81.0948 19.18V19.42C81.0948 19.78 81.2215 20.06 81.4748 20.26C81.7282 20.46 82.1015 20.56 82.5948 20.56C83.6215 20.56 84.3815 20.3133 84.8748 19.82C85.1015 19.5933 85.2348 19.3533 85.2748 19.1C85.3148 18.8333 85.3348 18.4933 85.3348 18.08V17.78ZM96.2997 7.88C97.313 7.88 98.2064 8 98.9797 8.24C99.7664 8.48 100.526 8.89333 101.26 9.48L99.8797 11.44C99.293 10.9467 98.713 10.6267 98.1397 10.48C97.5664 10.32 96.953 10.24 96.2997 10.24C95.873 10.24 95.453 10.3067 95.0397 10.44C94.6264 10.56 94.2597 10.7867 93.9397 11.12C93.6197 11.4533 93.3597 11.9067 93.1597 12.48C92.9597 13.0533 92.8597 13.7867 92.8597 14.68V16.16C92.8597 16.92 92.953 17.5667 93.1397 18.1C93.3264 18.6333 93.573 19.0667 93.8797 19.4C94.1997 19.7333 94.5664 19.98 94.9797 20.14C95.393 20.2867 95.8264 20.36 96.2797 20.36C96.9464 20.36 97.6264 20.26 98.3197 20.06C99.0264 19.8467 99.6664 19.4467 100.24 18.86L101.6 20.82C101.173 21.2467 100.72 21.5867 100.24 21.84C99.773 22.08 99.3064 22.2667 98.8397 22.4C98.373 22.5467 97.913 22.64 97.4597 22.68C97.0064 22.72 96.5797 22.74 96.1797 22.74C95.393 22.74 94.6397 22.6267 93.9197 22.4C93.213 22.1733 92.5864 21.8133 92.0397 21.32C91.5064 20.8267 91.0797 20.2 90.7597 19.44C90.4397 18.68 90.2797 17.76 90.2797 16.68V14.1C90.2797 13.02 90.433 12.0933 90.7397 11.32C91.0597 10.5333 91.493 9.88667 92.0397 9.38C92.5864 8.86 93.2197 8.48 93.9397 8.24C94.673 8 95.4597 7.88 96.2997 7.88ZM109.524 11.26C110.017 11.26 110.49 11.3333 110.944 11.48C111.41 11.6267 111.824 11.8667 112.184 12.2C112.544 12.52 112.83 12.94 113.044 13.46C113.257 13.98 113.364 14.6067 113.364 15.34V22.52H110.844V15.88C110.844 14.2667 110.144 13.46 108.744 13.46C108.544 13.46 108.304 13.4933 108.024 13.56C107.757 13.6133 107.497 13.7333 107.244 13.92C107.004 14.0933 106.797 14.3467 106.624 14.68C106.45 15.0133 106.364 15.4533 106.364 16V22.52H103.844V7.4H106.224V12.76H106.264C106.65 12.2 107.124 11.8133 107.684 11.6C108.257 11.3733 108.87 11.26 109.524 11.26ZM119.446 22.68C118.259 22.68 117.339 22.4133 116.686 21.88C116.032 21.3333 115.706 20.5733 115.706 19.6V18.96C115.706 18.5067 115.772 18.0933 115.906 17.72C116.052 17.3333 116.286 17 116.606 16.72C116.939 16.44 117.372 16.22 117.906 16.06C118.439 15.9 119.092 15.82 119.866 15.82H122.386V15.4C122.386 14.72 122.226 14.2333 121.906 13.94C121.599 13.6333 121.106 13.48 120.426 13.48C119.279 13.48 118.239 13.8467 117.306 14.58L116.066 12.74C116.626 12.3533 117.259 12.0133 117.966 11.72C118.672 11.4133 119.499 11.26 120.446 11.26C121.086 11.26 121.679 11.34 122.226 11.5C122.772 11.66 123.239 11.8933 123.626 12.2C124.026 12.4933 124.332 12.86 124.546 13.3C124.772 13.7267 124.886 14.22 124.886 14.78V22.52H122.626L122.586 21.16C122.479 21.4 122.306 21.62 122.066 21.82C121.839 22.0067 121.579 22.16 121.286 22.28C120.992 22.4133 120.686 22.5133 120.366 22.58C120.046 22.6467 119.739 22.68 119.446 22.68ZM122.386 17.78H119.926C119.259 17.78 118.792 17.9067 118.526 18.16C118.272 18.4133 118.146 18.7533 118.146 19.18V19.42C118.146 19.78 118.272 20.06 118.526 20.26C118.779 20.46 119.152 20.56 119.646 20.56C120.672 20.56 121.432 20.3133 121.926 19.82C122.152 19.5933 122.286 19.3533 122.326 19.1C122.366 18.8333 122.386 18.4933 122.386 18.08V17.78ZM128.43 13.58H126.67V11.5H128.43V8.68H130.95V11.5H133.73V13.58H130.95V19.38C130.95 19.8467 131.044 20.1533 131.23 20.3C131.43 20.4467 131.697 20.52 132.03 20.52C132.284 20.52 132.53 20.5 132.77 20.46C133.024 20.4067 133.297 20.32 133.59 20.2L133.99 22.22C133.764 22.3267 133.45 22.4267 133.05 22.52C132.664 22.6267 132.224 22.68 131.73 22.68C131.104 22.68 130.577 22.6067 130.15 22.46C129.724 22.3133 129.384 22.1 129.13 21.82C128.877 21.54 128.697 21.2 128.59 20.8C128.484 20.3867 128.43 19.92 128.43 19.4V13.58Z" fill="#212121"/>
</svg>
