<svg width="36" height="36" viewBox="0 0 36 36" fill="none" xmlns="http://www.w3.org/2000/svg">
<path d="M4.5 31.5V7H31V26.5H11L4.5 31.5Z" fill="white"/>
<path d="M32.2501 7.49983V25.4998C32.2501 26.0966 32.013 26.6689 31.5911 27.0908C31.1691 27.5128 30.5968 27.7498 30.0001 27.7498H11.297L6.71258 31.7098L6.69992 31.7197C6.29491 32.0629 5.78097 32.2508 5.25008 32.2498C4.91955 32.2492 4.59315 32.1763 4.29383 32.0361C3.90552 31.8566 3.57705 31.5692 3.34765 31.2081C3.11824 30.8471 2.99758 30.4276 3.00008 29.9998V7.49983C3.00008 6.90309 3.23713 6.3308 3.65909 5.90884C4.08104 5.48688 4.65334 5.24983 5.25008 5.24983H30.0001C30.5968 5.24983 31.1691 5.48688 31.5911 5.90884C32.013 6.3308 32.2501 6.90309 32.2501 7.49983ZM30.0001 7.49983H5.25008V29.9998L10.1396 25.7811C10.3429 25.6018 10.604 25.5019 10.8751 25.4998H30.0001V7.49983Z" fill="#FF6F00"/>
<path d="M19.881 12.8408C19.6955 13.1183 19.5966 13.4446 19.5966 13.7783C19.5966 14.2259 19.7743 14.6551 20.0908 14.9716C20.4073 15.288 20.8365 15.4658 21.2841 15.4658C21.6178 15.4658 21.9441 15.3669 22.2216 15.1814C22.4991 14.996 22.7154 14.7324 22.8431 14.4241C22.9708 14.1157 23.0042 13.7764 22.9391 13.4491C22.874 13.1218 22.7133 12.8211 22.4773 12.5851C22.2413 12.3491 21.9406 12.1884 21.6133 12.1232C21.2859 12.0581 20.9466 12.0916 20.6383 12.2193C20.3299 12.347 20.0664 12.5633 19.881 12.8408Z" fill="#FF6F00"/>
<path d="M15.2841 15.1814C15.0066 15.3669 14.6803 15.4658 14.3466 15.4658C13.899 15.4658 13.4698 15.288 13.1533 14.9716C12.8368 14.6551 12.6591 14.2259 12.6591 13.7783C12.6591 13.4446 12.758 13.1183 12.9435 12.8408C13.1289 12.5633 13.3924 12.347 13.7008 12.2193C14.0091 12.0916 14.3484 12.0581 14.6758 12.1232C15.0031 12.1884 15.3038 12.3491 15.5398 12.5851C15.7758 12.8211 15.9365 13.1218 16.0016 13.4491C16.0667 13.7764 16.0333 14.1157 15.9056 14.4241C15.7779 14.7324 15.5616 14.996 15.2841 15.1814Z" fill="#FF6F00"/>
<path d="M24.5382 18.2537V18.2544C24.8615 17.7745 25.5125 17.6466 25.9936 17.9688C26.4753 18.2915 26.6041 18.9438 26.2814 19.4256L25.4091 18.8411C26.2315 19.392 26.2783 19.424 26.2807 19.4263L26.2799 19.4278L26.2741 19.4366C26.2712 19.4408 26.2677 19.4456 26.2638 19.4512C26.2558 19.4627 26.2455 19.4775 26.2331 19.4944C26.2083 19.5283 26.1747 19.5729 26.132 19.6263C26.0464 19.7331 25.9239 19.8763 25.7614 20.043C25.4363 20.3764 24.9499 20.805 24.2782 21.2288C22.9261 22.0819 20.8576 22.8914 17.9091 22.8914C13.2058 22.8914 10.4225 20.7477 9.53677 19.4256C9.21406 18.9438 9.3429 18.2915 9.82461 17.9688C10.3064 17.6461 10.9586 17.7749 11.2814 18.2566C11.7355 18.9345 13.8278 20.7908 17.9091 20.7908C20.4508 20.7908 22.1324 20.1002 23.1576 19.4534C23.6746 19.1272 24.0344 18.8057 24.2577 18.5767C24.3692 18.4623 24.4463 18.3709 24.4921 18.3138C24.515 18.2852 24.5302 18.2652 24.5375 18.2552L24.5382 18.2537Z" fill="#FF6F00"/>
</svg>
